<svg width="62" height="78" viewBox="0 0 62 78" fill="none" xmlns="http://www.w3.org/2000/svg">
<g filter="url(#filter0_d)">
<path d="M33.6311 3.99963C18.6761 3.99963 14.2089 13.7843 11.9156 17.708C9.6223 21.6317 6.84765 28.2953 6.07921 32.2313C5.31078 36.1673 10.3066 39.561 13.544 36.1673C16.7814 32.7735 16.2766 30.4252 16.6233 29.9048C16.97 29.3845 16.8014 55.4493 16.8014 63.4011C16.8014 71.353 26.845 70.8627 26.845 63.4011L26.845 47.9743C26.845 54.7535 36.7056 54.8446 36.7056 47.9743C36.7056 54.8446 46.2535 54.7967 46.2535 47.9743L46.2535 43.7379C46.2535 50.3156 56 51.5028 56 42.677C56 33.8513 55.8137 26.3602 55.4827 23.2724C55.1518 20.1846 52.5538 3.99963 33.6311 3.99963Z" fill="white"/>
<path d="M11.9156 17.708L11.0523 17.2034L11.0523 17.2034L11.9156 17.708ZM45.2535 39.4237C45.2535 38.8714 45.7012 38.4237 46.2535 38.4237C46.8058 38.4237 47.2535 38.8714 47.2535 39.4237L45.2535 39.4237ZM35.7056 39.4237C35.7056 38.8714 36.1533 38.4237 36.7056 38.4237C37.2578 38.4237 37.7056 38.8714 37.7056 39.4237L35.7056 39.4237ZM25.845 39.4237C25.845 38.8714 26.2927 38.4237 26.845 38.4237C27.3973 38.4237 27.845 38.8714 27.845 39.4237L25.845 39.4237ZM6.07921 32.2313L7.06068 32.4229L6.07921 32.2313ZM11.0523 17.2034C12.1634 15.3023 13.9398 11.7047 17.3574 8.63812C20.8139 5.53665 25.9074 2.99963 33.6311 2.99963L33.6311 4.99963C26.3998 4.99963 21.7822 7.35495 18.6931 10.1267C15.5651 12.9334 13.9611 16.19 12.779 18.2126L11.0523 17.2034ZM33.6311 2.99963C43.4362 2.99963 49.1179 7.2201 52.352 11.9104C55.5462 16.5427 56.3043 21.5542 56.477 23.1658L54.4884 23.379C54.3302 21.9027 53.6238 17.2779 50.7055 13.0458C47.8273 8.87164 42.7486 4.99963 33.6311 4.99963L33.6311 2.99963ZM56.477 23.1658C56.8147 26.316 57 33.8613 57 42.677L55 42.677C55 33.8412 54.8127 26.4044 54.4884 23.379L56.477 23.1658ZM57 42.677C57 45.0658 56.3382 46.9037 55.2242 48.1559C54.1075 49.4111 52.6082 49.9934 51.1203 49.9838C48.156 49.9646 45.2535 47.5984 45.2535 43.7379L47.2535 43.7379C47.2535 46.4551 49.2242 47.9714 51.1332 47.9838C52.0819 47.99 53.0193 47.6254 53.73 46.8265C54.4434 46.0245 55 44.7012 55 42.677L57 42.677ZM45.2535 43.7379L45.2535 39.4237L47.2535 39.4237L47.2535 43.7379L45.2535 43.7379ZM47.2535 43.7379L47.2535 47.9743L45.2535 47.9743L45.2535 43.7379L47.2535 43.7379ZM47.2535 47.9743C47.2535 49.9279 46.5625 51.4794 45.453 52.5411C44.3563 53.5905 42.9091 54.1055 41.482 54.1091C40.0548 54.1126 38.6054 53.6047 37.5067 52.5552C36.3952 51.4935 35.7056 49.9378 35.7056 47.9743L37.7056 47.9743C37.7056 49.4459 38.2094 50.4606 38.8882 51.109C39.5797 51.7695 40.5173 52.1115 41.477 52.1091C42.4369 52.1067 43.3767 51.7598 44.0703 51.0961C44.751 50.4448 45.2535 49.4319 45.2535 47.9743L47.2535 47.9743ZM35.7056 47.9743L35.7056 39.4237L37.7056 39.4237L37.7056 47.9743L35.7056 47.9743ZM37.7056 47.9743C37.7056 49.9484 36.9886 51.5055 35.8424 52.5615C34.7118 53.6031 33.2268 54.0996 31.7707 54.0928C30.3147 54.0861 28.8336 53.5763 27.7069 52.5347C26.5646 51.4789 25.845 49.9296 25.845 47.9743L27.845 47.9743C27.845 49.4086 28.3579 50.413 29.0645 51.0661C29.7866 51.7336 30.7707 52.0882 31.7799 52.0929C32.7889 52.0975 33.769 51.7523 34.4873 51.0906C35.19 50.4432 35.7056 49.4353 35.7056 47.9743L37.7056 47.9743ZM25.845 47.9743L25.845 39.4237L27.845 39.4237L27.845 47.9743L25.845 47.9743ZM27.845 63.4011C27.845 67.6688 24.907 70.1062 21.8476 70.1809C20.3367 70.2177 18.8079 69.6737 17.6584 68.5069C16.5027 67.334 15.8014 65.6061 15.8014 63.4011L17.8014 63.4011C17.8014 65.1721 18.3555 66.3648 19.0831 67.1033C19.8167 67.8479 20.7988 68.2059 21.7988 68.1815C23.7612 68.1336 25.845 66.5951 25.845 63.4011L27.845 63.4011ZM15.8014 63.4011C15.8014 59.3466 15.8436 50.9917 15.8423 43.476C15.8417 39.7541 15.8303 36.3018 15.7974 33.8141C15.781 32.5683 15.7593 31.5738 15.7313 30.9106C15.7172 30.5741 15.7022 30.3449 15.6882 30.2157C15.6794 30.1342 15.6768 30.1519 15.6931 30.2085C15.6986 30.2276 15.7123 30.2728 15.7385 30.3297C15.7567 30.3693 15.8223 30.5091 15.9679 30.641C16.1485 30.8045 16.5053 30.9869 16.9343 30.8505C17.2589 30.7472 17.4168 30.5173 17.4555 30.4593L15.7911 29.3504C15.8351 29.2842 15.9984 29.0494 16.3283 28.9445C16.7625 28.8064 17.1246 28.9903 17.3104 29.1585C17.4612 29.295 17.5319 29.4427 17.5551 29.4932C17.5864 29.5611 17.605 29.6204 17.6154 29.6566C17.6514 29.7818 17.6676 29.9173 17.6766 30.0001C17.6982 30.1994 17.7152 30.4846 17.7296 30.8265C17.7588 31.5202 17.7808 32.5387 17.7973 33.7877C17.8303 36.2892 17.8417 39.7526 17.8423 43.4757C17.8435 50.8503 17.8014 59.5037 17.8014 63.4011L15.8014 63.4011ZM17.4555 30.4593C17.523 30.3579 17.5233 30.2935 17.5022 30.3925C17.4846 30.4755 17.4685 30.5848 17.44 30.7741C17.3865 31.1307 17.3077 31.6364 17.1258 32.245C16.7573 33.4775 15.9916 35.0502 14.2676 36.8575L12.8204 35.477C14.3338 33.8905 14.9344 32.5922 15.2096 31.6721C15.3494 31.2043 15.4117 30.8132 15.4622 30.4771C15.4858 30.3201 15.5124 30.134 15.5461 29.9758C15.5765 29.8334 15.6368 29.5818 15.7911 29.3504L17.4555 30.4593ZM14.2676 36.8575C12.2915 38.929 9.71245 38.9334 7.80242 37.8099C5.94021 36.7144 4.61949 34.4893 5.09774 32.0397L7.06068 32.4229C6.7705 33.9092 7.5635 35.349 8.81645 36.086C10.0216 36.7949 11.5591 36.7993 12.8204 35.477L14.2676 36.8575ZM5.09774 32.0397C5.89374 27.9625 8.72073 21.1925 11.0523 17.2034L12.779 18.2126C10.5239 22.0709 7.80156 28.628 7.06068 32.4229L5.09774 32.0397ZM27.845 47.9743L27.845 63.4011L25.845 63.4011L25.845 47.9743L27.845 47.9743Z" fill="black"/>
</g>
<defs>
<filter id="filter0_d" x="-0.000976562" y="0" width="62.0008" height="77.183" filterUnits="userSpaceOnUse" color-interpolation-filters="sRGB">
<feFlood flood-opacity="0" result="BackgroundImageFix"/>
<feColorMatrix in="SourceAlpha" type="matrix" values="0 0 0 0 0 0 0 0 0 0 0 0 0 0 0 0 0 0 127 0"/>
<feOffset dy="2"/>
<feGaussianBlur stdDeviation="2.5"/>
<feColorMatrix type="matrix" values="0 0 0 0 0 0 0 0 0 0 0 0 0 0 0 0 0 0 0.4 0"/>
<feBlend mode="normal" in2="BackgroundImageFix" result="effect1_dropShadow"/>
<feBlend mode="normal" in="SourceGraphic" in2="effect1_dropShadow" result="shape"/>
</filter>
</defs>
</svg>
